<svg aria-hidden="true" style="position: absolute; width: 0; height: 0; overflow: hidden;" version="1.1" xmlns="http://www.w3.org/2000/svg" xmlns:xlink="http://www.w3.org/1999/xlink">
<defs>
<symbol id="icon-moon" viewBox="0 0 32 32">
<path fill="none" stroke="#fff" style="stroke: var(--color1, #fff)" stroke-linejoin="miter" stroke-linecap="butt" stroke-miterlimit="4" stroke-width="1.3333" d="M16.359 16.518c5.333 9.238 15.353 6.532 8.976 10.214s-14.532 1.497-18.214-4.88c-3.682-6.377-1.497-14.532 4.88-18.214s-0.976 3.643 4.357 12.88z"></path>
</symbol>
<symbol id="icon-sun" viewBox="0 0 32 32">
<path fill="none" stroke="#fff" style="stroke: var(--color1, #fff)" stroke-linejoin="miter" stroke-linecap="round" stroke-miterlimit="4" stroke-width="1.5" d="M16 1.333v2.667M16 28v2.667M30.667 16h-2.667M4 16h-2.667M26.371 5.629l-1.886 1.886M7.515 24.485l-1.886 1.886M26.371 26.371l-1.886-1.886M7.515 7.515l-1.886-1.886M24 16c0 4.418-3.582 8-8 8s-8-3.582-8-8c0-4.418 3.582-8 8-8s8 3.582 8 8z"></path>
</symbol>
</defs>
</svg>
